<?xml version="1.0" standalone="no"?>
<!DOCTYPE svg PUBLIC "-//W3C//DTD SVG 20010904//EN"
 "http://www.w3.org/TR/2001/REC-SVG-20010904/DTD/svg10.dtd">
<svg version="1.0" xmlns="http://www.w3.org/2000/svg"
 width="3395.000000pt" height="3395.000000pt" viewBox="0 0 3395.000000 3395.000000"
 preserveAspectRatio="xMidYMid meet">
<metadata>
Created by potrace 1.14, written by Peter Selinger 2001-2017
</metadata>
<g transform="translate(0.000000,3395.000000) scale(0.100000,-0.100000)"
fill="#000000" stroke="none">
<path d="M10405 21274 c-56 -26 -92 -73 -103 -134 -13 -74 -8 -6461 5 -6485 6
-11 11 -24 11 -28 0 -10 30 -45 59 -68 35 -28 113 -34 453 -33 301 1 339 2
373 19 50 23 94 79 102 127 12 71 8 6450 -4 6495 -13 47 -46 84 -99 109 -33
16 -72 18 -393 19 -345 0 -358 0 -404 -21z"/>
<path d="M656 21098 c-22 -5 -47 -15 -56 -23 -9 -8 -21 -15 -27 -15 -6 0 -22
-21 -35 -47 l-23 -48 -2 -3137 c-2 -2436 0 -3145 10 -3171 19 -53 55 -94 100
-113 37 -15 87 -17 382 -18 372 -2 407 2 464 53 54 48 61 92 61 368 l0 244 59
-73 c91 -113 232 -252 309 -305 20 -13 39 -27 42 -31 33 -44 423 -252 473
-252 5 0 23 -6 40 -14 18 -7 52 -19 77 -25 25 -7 59 -16 75 -21 41 -12 174
-37 240 -45 147 -19 453 -27 472 -13 7 5 14 5 18 -2 3 -6 11 -7 17 -4 6 4 32
9 57 10 25 2 62 6 81 10 19 3 46 7 60 9 60 9 91 15 180 39 200 52 357 114 518
203 48 26 91 50 97 52 5 2 14 8 20 13 5 4 42 29 80 54 39 25 72 50 73 55 2 5
10 9 17 9 7 0 15 7 19 15 3 8 10 15 15 15 11 0 44 27 112 92 27 25 49 44 49
41 0 -13 178 183 250 275 30 39 58 70 61 69 4 -1 30 -33 60 -72 67 -88 102
-127 210 -234 104 -103 125 -121 133 -114 3 4 6 -1 6 -10 0 -9 4 -17 9 -17 5
0 16 -6 23 -13 39 -39 240 -169 368 -239 103 -56 357 -155 444 -173 12 -2 36
-8 54 -14 17 -5 32 -8 32 -6 0 3 12 0 28 -6 15 -6 41 -12 57 -14 17 -2 44 -7
60 -10 17 -4 48 -8 70 -10 22 -2 40 -4 40 -5 0 -4 124 -12 222 -13 57 -1 103
-6 103 -10 0 -5 5 -5 10 -2 6 4 59 9 118 12 112 5 187 10 187 13 0 1 18 3 40
6 22 2 63 9 90 14 28 5 64 12 80 15 146 24 409 102 535 157 112 49 228 104
262 125 21 13 42 23 48 23 5 0 10 4 10 9 0 5 10 13 22 17 25 7 111 64 116 77
2 4 8 7 13 7 10 0 123 84 169 125 79 71 231 229 270 280 25 33 53 69 63 80 21
23 86 125 117 182 12 21 25 45 30 53 10 15 66 137 93 202 8 20 13 39 9 42 -3
3 0 6 6 6 7 0 11 3 10 8 -1 4 5 30 14 57 8 28 19 64 24 80 9 37 11 43 14 53 1
4 3 12 5 17 1 6 3 12 4 15 9 19 16 107 12 150 -2 26 -49 72 -88 85 -61 21 -98
15 -478 -75 -49 -12 -94 -23 -100 -24 -5 -2 -28 -7 -50 -11 -55 -12 -55 -12
-57 -15 -2 -1 -15 -4 -30 -6 -46 -8 -113 -40 -141 -68 -14 -14 -31 -26 -37
-26 -6 0 -8 -4 -5 -10 3 -5 2 -10 -3 -10 -5 0 -20 -21 -33 -47 -13 -27 -26
-50 -29 -53 -8 -7 -64 -102 -72 -122 -4 -10 -12 -18 -17 -18 -5 0 -12 -8 -15
-18 -6 -19 -143 -159 -198 -204 -49 -39 -126 -89 -188 -122 -30 -16 -57 -32
-60 -35 -3 -3 -12 -7 -20 -9 -8 -2 -32 -11 -55 -21 -43 -19 -78 -33 -83 -32
-1 1 -17 -5 -36 -13 -29 -12 -128 -37 -202 -51 -10 -2 -19 -4 -19 -5 0 -1 -13
-3 -30 -5 -16 -2 -52 -7 -80 -11 -95 -14 -405 -7 -432 9 -5 3 -27 8 -48 11
-22 3 -58 10 -80 17 -22 6 -48 11 -57 12 -10 1 -18 5 -18 9 0 4 -3 7 -7 6 -9
-1 -33 7 -73 25 -14 6 -29 11 -35 12 -5 0 -12 2 -15 5 -3 3 -29 16 -57 30 -29
14 -53 28 -53 33 0 4 -5 7 -11 7 -10 0 -110 66 -155 102 -40 32 -194 186 -194
194 0 5 -14 22 -30 38 -17 16 -30 33 -30 38 0 5 -8 18 -18 29 -11 10 -25 32
-32 47 -8 15 -19 34 -26 42 -31 39 -111 210 -88 187 3 -3 17 -2 30 3 23 9 47
15 99 25 11 2 30 6 43 9 21 6 31 8 92 21 14 3 34 7 45 10 19 4 106 24 420 95
77 18 147 33 155 35 8 2 58 13 110 25 52 12 106 24 120 26 14 3 50 11 80 19
30 8 66 16 80 19 14 2 45 10 70 16 25 7 60 13 77 13 18 1 33 5 33 8 0 4 21 10
48 14 26 5 52 10 57 11 18 6 89 23 118 28 15 3 39 9 55 12 15 4 35 7 45 8 9 0
17 3 17 6 0 3 8 6 18 7 17 2 46 7 87 17 67 15 209 47 223 49 9 1 23 6 29 10 7
5 13 5 13 1 0 -3 6 -2 13 3 6 5 22 8 35 7 12 0 22 2 22 7 0 5 6 6 14 3 8 -3
17 0 21 5 3 6 10 9 14 7 4 -3 46 4 92 15 46 11 95 22 109 24 14 2 40 9 58 14
18 5 35 10 37 10 3 1 6 1 8 2 6 2 92 19 117 23 8 1 24 5 35 9 11 3 32 9 48 12
69 13 84 17 117 25 19 5 46 11 60 14 14 2 93 20 176 40 84 19 164 37 178 40
14 3 34 7 44 10 9 3 28 7 42 10 71 13 141 62 161 113 26 66 26 95 4 218 -4 22
-9 49 -11 60 -4 20 -17 84 -20 98 -1 4 -3 9 -4 12 -3 7 -4 9 -19 80 -7 33 -16
65 -19 70 -7 10 -9 17 -15 47 -2 10 -6 21 -10 24 -4 4 -7 13 -7 20 0 7 -5 25
-12 41 -6 15 -12 33 -12 38 -1 6 -7 21 -15 35 -8 14 -14 26 -13 27 5 9 -80
199 -135 303 -25 47 -69 121 -98 165 -28 44 -51 82 -51 85 1 3 -11 19 -26 35
-16 16 -28 33 -28 36 0 3 -9 17 -21 30 -11 13 -33 39 -47 58 -81 103 -307 331
-328 331 -3 0 -15 10 -28 23 -13 12 -34 29 -46 37 -13 8 -34 25 -48 37 -13 12
-33 25 -43 28 -11 4 -19 11 -19 16 0 5 -7 9 -15 9 -8 0 -15 5 -15 10 0 6 -4
10 -10 10 -5 0 -34 16 -64 35 -30 19 -58 35 -62 35 -4 0 -15 6 -23 13 -48 40
-411 181 -516 201 -16 3 -52 10 -80 16 -27 6 -66 13 -85 16 -19 3 -46 7 -60
10 -118 20 -560 23 -560 4 0 -3 -24 -6 -53 -8 -48 -2 -92 -8 -92 -12 0 -1 -11
-3 -25 -4 -14 -2 -39 -6 -55 -11 -17 -4 -37 -9 -45 -10 -12 -1 -66 -14 -90
-20 -3 -1 -18 -5 -35 -9 -199 -50 -490 -172 -663 -277 -35 -21 -68 -39 -73
-39 -4 0 -13 -8 -18 -17 -6 -10 -11 -14 -11 -10 0 9 -73 -43 -78 -55 -2 -5 -8
-8 -13 -8 -10 0 -24 -10 -60 -42 -10 -10 -21 -18 -24 -18 -3 0 -16 -10 -29
-22 -13 -13 -52 -48 -86 -78 -35 -30 -68 -60 -74 -66 -27 -27 -150 -166 -174
-198 -15 -19 -30 -35 -33 -36 -3 0 -20 19 -37 43 -31 43 -58 75 -133 153 -21
23 -39 46 -39 53 0 6 -4 11 -9 11 -5 0 -32 21 -60 48 -61 58 -121 111 -153
135 -12 9 -36 28 -53 40 -16 13 -59 43 -95 67 -36 24 -77 52 -92 62 -15 10
-31 18 -37 18 -5 0 -11 3 -13 8 -4 10 -253 132 -270 132 -8 0 -18 4 -23 9 -19
17 -274 96 -375 115 -14 3 -36 8 -50 11 -14 3 -51 7 -82 9 -32 3 -62 7 -68 11
-8 5 -231 17 -295 16 -53 -1 -199 -10 -235 -15 -25 -4 -63 -9 -85 -12 -22 -3
-72 -12 -111 -20 -39 -9 -77 -17 -85 -18 -76 -14 -268 -81 -359 -124 -129 -62
-299 -165 -347 -211 -12 -12 -26 -21 -32 -21 -15 0 -241 -228 -295 -298 -27
-34 -51 -61 -52 -59 -2 2 -4 534 -4 1183 0 853 -3 1189 -12 1216 -13 44 -63
108 -84 108 -8 0 -14 4 -14 8 0 5 -6 10 -12 11 -43 6 -720 6 -752 -1z m6454
-2668 c0 -3 19 -6 43 -7 23 -1 49 -4 57 -6 30 -8 115 -21 123 -19 4 1 7 -2 7
-8 0 -5 11 -10 23 -10 13 0 27 -3 31 -7 6 -7 29 -13 54 -15 6 -1 12 -5 12 -10
0 -4 3 -7 8 -6 11 2 112 -44 112 -52 0 -4 6 -7 13 -7 14 0 100 -53 105 -65 2
-5 8 -8 14 -8 5 0 15 -6 22 -12 7 -7 30 -26 50 -43 55 -43 120 -110 181 -185
57 -69 160 -230 148 -230 -4 0 2 -7 13 -15 10 -8 15 -15 11 -15 -5 0 2 -14 14
-32 13 -17 18 -28 12 -25 -7 4 -1 -12 13 -37 l24 -44 -47 -12 c-27 -6 -57 -14
-68 -16 -10 -2 -91 -20 -180 -40 -88 -20 -185 -42 -215 -49 -30 -7 -107 -24
-170 -38 -63 -15 -126 -28 -140 -31 -14 -2 -32 -7 -40 -10 -8 -3 -26 -7 -40
-10 -14 -2 -68 -14 -120 -26 -52 -12 -103 -23 -113 -25 -10 -2 -26 -6 -35 -9
-9 -3 -35 -8 -57 -12 -22 -3 -44 -8 -48 -11 -5 -3 -23 -7 -40 -10 -41 -7 -62
-11 -62 -13 0 -2 -27 -8 -65 -15 -37 -7 -65 -13 -65 -15 0 -1 -13 -4 -30 -6
-16 -3 -75 -16 -130 -29 -55 -13 -118 -27 -140 -31 -52 -10 -55 -11 -57 -14
-2 -1 -12 -4 -23 -6 -48 -9 -74 -14 -131 -28 -34 -8 -73 -17 -88 -20 -14 -3
-34 -7 -44 -10 -9 -3 -28 -8 -42 -10 -126 -27 -213 -47 -219 -51 -5 -2 -24 -6
-42 -9 -32 -4 -156 -32 -188 -42 -11 -4 -13 18 -8 128 3 73 8 147 12 163 3 17
10 55 16 85 21 103 71 244 127 352 30 59 59 108 64 108 4 0 8 7 8 15 0 8 5 15
10 15 6 0 10 7 10 15 0 7 6 18 13 22 6 4 24 24 38 43 61 81 266 260 299 260 5
0 10 4 10 8 0 17 319 165 355 165 8 0 15 4 15 9 0 5 5 6 10 3 6 -4 17 -1 25 5
8 7 15 10 15 7 0 -3 20 1 44 8 24 8 47 11 50 8 3 -4 6 -1 6 6 0 7 5 9 10 6 6
-3 15 -3 21 1 7 4 28 8 48 10 74 6 133 13 136 16 6 5 215 3 215 -2z m-3955
-62 c4 -4 16 -3 26 2 10 6 20 6 23 2 2 -4 21 -9 42 -10 20 -2 46 -8 57 -13 14
-8 18 -8 13 0 -5 8 0 9 16 2 13 -5 61 -19 108 -31 47 -13 90 -27 97 -32 7 -6
17 -7 23 -3 5 3 10 1 10 -6 0 -7 2 -10 6 -7 3 3 31 -7 62 -22 31 -14 72 -33
90 -41 17 -8 32 -17 32 -21 0 -5 6 -8 14 -8 8 0 21 -6 28 -14 8 -7 27 -20 43
-29 40 -21 189 -142 213 -172 11 -13 22 -21 26 -18 3 3 6 2 6 -4 0 -6 22 -35
50 -64 27 -30 55 -66 62 -81 7 -15 15 -25 18 -23 4 2 16 -13 27 -33 31 -59 48
-87 54 -92 17 -15 90 -190 125 -300 23 -75 26 -87 45 -190 33 -183 30 -430 -6
-605 -32 -153 -73 -271 -138 -400 -37 -74 -128 -215 -139 -215 -4 0 -8 -6 -8
-14 0 -8 -10 -22 -22 -30 -12 -9 -19 -16 -15 -16 8 0 -107 -116 -158 -160 -53
-45 -144 -110 -155 -110 -5 0 -10 -5 -10 -11 0 -5 -4 -7 -10 -4 -5 3 -10 2
-10 -3 0 -5 -35 -27 -77 -48 -43 -21 -80 -41 -81 -46 -2 -4 -8 -5 -13 -2 -6 3
-21 -2 -34 -10 -14 -9 -25 -14 -25 -10 0 4 -6 2 -12 -4 -12 -8 -97 -36 -153
-49 -40 -9 -50 -12 -50 -14 0 -1 -13 -3 -30 -4 -16 -2 -41 -6 -55 -10 -42 -10
-150 -18 -265 -17 -97 0 -220 7 -220 13 0 1 -13 3 -30 4 -16 2 -30 4 -30 5 0
2 -55 11 -77 13 -10 1 -18 5 -18 10 0 4 -5 5 -10 2 -6 -4 -17 -2 -24 4 -8 7
-18 11 -22 9 -11 -3 -78 19 -124 40 -19 9 -39 15 -45 13 -5 -1 -15 6 -22 15
-7 10 -13 14 -13 10 0 -5 -7 -3 -15 4 -8 7 -15 10 -15 6 0 -6 -110 52 -120 64
-3 3 -17 11 -32 19 -15 8 -37 22 -47 33 -11 10 -23 18 -26 18 -4 0 -12 6 -20
13 -7 6 -32 28 -56 47 -53 44 -129 121 -129 132 0 4 -7 8 -15 8 -8 0 -15 6
-15 13 0 7 -8 20 -17 29 -60 56 -167 239 -228 388 -28 70 -73 231 -82 295 -3
22 -9 60 -13 85 -9 47 -6 400 4 460 16 94 70 283 105 364 40 94 118 240 146
272 6 6 19 24 30 40 98 136 290 304 440 384 33 17 67 35 75 40 17 10 93 44
100 45 27 6 98 30 107 38 7 5 17 6 22 3 5 -4 13 -1 16 5 4 5 13 8 21 5 8 -3
14 -2 14 3 0 4 6 8 13 8 6 0 26 3 42 6 71 14 102 19 133 21 18 2 35 5 37 8 7
7 303 3 310 -4z"/>
<path d="M17464 21101 c-3 -3 -9 -6 -12 -7 -16 -2 -59 -25 -77 -41 -29 -26
-53 -83 -50 -120 2 -18 0 -31 -4 -29 -3 2 -6 -27 -6 -65 0 -38 3 -69 7 -69 4
0 3 -12 -2 -26 -7 -16 -7 -23 0 -19 7 4 7 -2 0 -19 -5 -15 -6 -28 0 -31 5 -3
7 -11 4 -18 -9 -25 -10 -127 -1 -127 5 0 5 -6 -2 -13 -8 -10 -7 -17 1 -25 7
-7 8 -12 3 -12 -11 0 -12 -51 -1 -68 4 -7 4 -12 -1 -12 -10 0 -9 -52 1 -68 4
-7 4 -12 -1 -12 -10 0 -9 -52 1 -68 4 -7 4 -12 -1 -12 -4 0 -7 -17 -6 -37 1
-21 2 -38 3 -38 1 0 3 -11 6 -25 9 -56 15 -70 47 -103 56 -59 83 -63 457 -62
184 0 340 3 345 6 6 3 17 5 25 4 8 0 17 2 20 6 3 3 18 12 34 20 16 8 34 23 40
34 6 11 14 22 17 25 21 18 25 99 23 475 -3 442 -3 445 -16 445 -5 0 -7 4 -4 9
4 5 -12 29 -34 52 -22 24 -40 40 -40 36 0 -4 -10 -2 -22 5 -17 9 -115 13 -386
13 -199 1 -365 -1 -368 -4z"/>
<path d="M27481 21092 c-23 -8 -45 -20 -48 -28 -3 -8 -11 -14 -17 -14 -15 0
-46 -62 -46 -91 0 -11 -4 -18 -9 -14 -6 3 -6 -6 -1 -25 5 -18 5 -32 -1 -35 -5
-4 -5 -13 1 -24 5 -10 7 -21 4 -24 -8 -8 -8 -192 0 -205 3 -6 2 -13 -3 -16 -6
-4 -6 -18 -1 -36 5 -17 6 -30 2 -30 -4 0 -7 -34 -7 -75 0 -41 3 -75 7 -75 4 0
3 -12 -2 -26 -6 -16 -6 -32 -1 -43 6 -10 6 -23 1 -31 -5 -8 -5 -19 0 -25 5 -6
5 -17 0 -25 -5 -8 -5 -21 1 -31 6 -12 5 -20 -1 -24 -6 -4 -8 -11 -4 -16 6 -10
14 -51 17 -81 1 -10 5 -18 9 -18 4 0 8 -5 8 -11 0 -17 57 -69 75 -69 8 0 15
-4 15 -8 0 -5 6 -10 13 -11 31 -4 713 -6 722 -2 6 3 19 7 29 8 37 6 87 46 109
87 21 40 22 49 23 451 1 438 -2 473 -48 522 -51 54 -64 56 -449 58 -282 1
-365 -2 -398 -13z"/>
<path d="M14237 19354 c-3 -4 -37 -8 -74 -10 -107 -6 -165 -11 -203 -18 -19
-3 -48 -8 -64 -11 -232 -37 -495 -131 -680 -243 -37 -23 -72 -42 -76 -42 -5 0
-10 -3 -12 -8 -1 -4 -27 -24 -56 -45 -72 -51 -105 -80 -192 -167 -85 -86 -102
-105 -150 -175 -19 -27 -38 -51 -42 -53 -5 -2 -8 -10 -8 -18 0 -8 -4 -14 -10
-14 -5 0 -10 -8 -10 -19 0 -10 -6 -24 -14 -30 -13 -11 -42 -66 -89 -171 -57
-124 -117 -379 -112 -470 3 -56 21 -110 37 -110 4 0 8 -6 8 -14 0 -12 52 -44
90 -54 8 -2 165 -5 347 -6 353 -2 412 4 444 43 9 11 19 18 21 15 7 -6 68 120
74 151 2 13 9 37 16 52 6 16 12 30 12 33 1 3 16 31 34 64 47 83 186 218 240
232 12 3 22 10 22 16 0 5 5 6 10 3 6 -3 10 -2 10 2 0 9 99 49 113 45 4 -1 7 2
7 6 0 5 6 9 13 10 6 0 23 3 37 7 14 3 32 8 40 10 8 2 15 4 15 5 0 2 74 12 103
14 12 0 22 3 22 6 0 3 65 6 145 6 80 0 145 -4 145 -7 0 -4 8 -6 17 -5 15 2 44
-2 123 -20 48 -10 120 -37 126 -45 3 -5 10 -6 16 -3 6 4 13 2 17 -3 3 -5 32
-24 64 -42 153 -87 299 -297 330 -476 3 -16 11 -55 17 -85 13 -57 23 -790 11
-790 -3 0 -27 20 -52 43 -71 65 -219 174 -219 162 0 -2 -21 9 -47 25 -26 17
-53 30 -60 30 -7 0 -13 5 -13 10 0 6 -4 10 -9 10 -5 0 -26 8 -47 17 -22 9 -42
16 -46 15 -5 -1 -8 2 -8 8 0 6 -3 9 -7 8 -5 -1 -33 6 -63 17 -30 11 -57 20
-60 20 -3 1 -25 7 -50 15 -25 7 -51 15 -59 16 -7 1 -34 8 -60 14 -25 6 -60 13
-76 15 -17 2 -30 4 -30 5 0 1 -13 4 -30 6 -16 2 -46 6 -65 9 -121 18 -364 23
-519 11 -52 -4 -97 -9 -100 -11 -3 -1 -28 -6 -56 -9 -27 -4 -86 -16 -130 -28
-44 -11 -84 -21 -90 -22 -5 -1 -15 -4 -20 -8 -6 -3 -27 -9 -48 -13 -20 -4 -40
-11 -43 -16 -3 -5 -10 -7 -15 -4 -5 4 -9 2 -9 -2 0 -5 -20 -15 -45 -22 -25 -7
-45 -17 -45 -22 0 -5 -7 -9 -15 -9 -9 0 -27 -7 -40 -16 -14 -9 -25 -13 -25 -9
0 3 -7 -1 -16 -9 -8 -9 -22 -16 -30 -16 -8 0 -14 -4 -14 -10 0 -5 -6 -10 -13
-10 -7 0 -23 -9 -35 -20 -12 -11 -25 -20 -31 -20 -5 0 -11 -3 -13 -7 -1 -5
-23 -21 -48 -38 -46 -31 -260 -240 -260 -254 0 -4 -11 -21 -25 -37 -14 -16
-25 -34 -25 -41 0 -6 -4 -13 -9 -15 -23 -9 -154 -292 -164 -355 -1 -10 -5 -22
-8 -28 -4 -5 -5 -18 -4 -27 2 -10 -1 -18 -6 -18 -6 0 -9 -6 -8 -12 1 -7 -1
-29 -4 -48 -23 -117 -28 -178 -28 -320 0 -104 6 -225 11 -225 1 0 3 -18 6 -40
2 -22 7 -51 11 -65 3 -14 6 -28 5 -32 -1 -4 12 -53 29 -108 55 -188 164 -387
277 -508 27 -29 47 -52 45 -52 -2 0 16 -17 39 -37 24 -21 56 -50 73 -65 16
-16 33 -28 36 -28 4 0 22 -13 40 -30 19 -16 37 -30 41 -30 4 0 31 -15 60 -34
115 -73 403 -188 422 -168 3 3 6 1 6 -4 0 -6 28 -16 63 -22 34 -7 76 -15 92
-18 130 -25 423 -35 580 -20 95 9 150 16 175 21 14 3 36 8 50 10 22 4 52 11
123 30 9 3 25 7 35 9 71 19 166 57 264 107 155 78 254 152 384 285 l81 83 -1
-117 c-2 -189 20 -251 104 -293 43 -22 53 -22 385 -23 395 0 412 2 464 69 37
46 41 57 44 120 1 22 6 46 10 53 5 6 4 12 0 12 -11 0 -10 211 1 228 4 7 4 12
-1 12 -10 0 -10 291 1 308 4 7 4 12 -1 12 -10 0 -9 532 1 548 4 7 3 12 -1 12
-11 0 -10 211 1 228 4 7 4 12 -1 12 -10 0 -10 531 1 548 4 6 3 12 -1 12 -11 0
-10 211 1 228 4 7 4 12 -1 12 -10 0 -10 291 1 308 4 7 3 12 -1 12 -10 0 -9
212 1 228 4 7 3 12 -1 12 -5 0 -9 44 -10 98 -2 121 -7 185 -17 200 -4 7 -2 12
4 12 6 0 8 5 5 10 -6 10 -9 22 -19 92 -3 21 -11 59 -17 85 -6 27 -12 55 -14
63 -9 43 -38 136 -45 144 -5 5 -6 15 -3 22 3 8 0 14 -7 14 -6 0 -9 4 -6 8 2 4
-2 21 -9 37 -96 207 -130 268 -214 380 -73 97 -164 194 -240 255 -24 19 -49
40 -56 47 -56 53 -378 233 -418 233 -7 0 -17 4 -22 9 -22 20 -284 93 -382 106
-12 2 -34 6 -50 9 -45 9 -132 17 -216 20 -43 2 -80 6 -83 8 -2 3 -23 2 -47 -2
-23 -5 -49 -4 -58 1 -9 4 -19 6 -22 3z m-154 -2767 c11 11 62 10 70 -1 5 -8 9
-8 15 0 8 12 81 12 100 1 7 -5 12 -3 12 3 0 6 5 8 12 4 7 -5 31 -9 53 -11 48
-3 110 -11 110 -13 0 -1 18 -3 40 -6 22 -2 47 -7 55 -10 8 -3 40 -12 70 -20
61 -16 63 -17 170 -68 107 -52 132 -69 205 -141 115 -113 175 -249 180 -406 2
-69 -10 -173 -23 -193 -3 -6 -7 -15 -8 -21 -3 -19 -48 -110 -61 -123 -7 -7
-13 -17 -13 -22 0 -13 -152 -160 -166 -160 -7 0 -17 -6 -21 -14 -9 -16 -177
-98 -243 -120 -257 -82 -591 -92 -855 -24 -78 20 -247 93 -253 110 -2 4 -8 8
-13 8 -29 0 -175 154 -185 196 -3 13 -10 24 -14 24 -4 0 -12 12 -18 28 -6 15
-14 36 -18 47 -4 11 -9 25 -9 30 -1 6 -5 17 -9 26 -4 9 -6 20 -5 25 1 5 0 11
-1 14 -12 31 -21 228 -11 245 3 6 6 17 8 25 6 45 16 86 21 95 4 5 7 16 8 23 4
26 44 102 54 102 6 0 9 3 8 8 -4 11 32 61 72 102 44 45 164 128 196 136 13 4
24 11 24 17 0 6 3 8 6 4 4 -3 19 0 35 9 16 8 29 12 29 9 0 -3 13 1 30 10 16 8
33 15 37 14 4 -1 11 0 16 1 36 12 137 28 205 34 23 2 45 6 49 9 3 4 11 2 18
-3 7 -5 15 -7 18 -3z"/>
<path d="M21296 19352 c-2 -1 -39 -4 -82 -7 -194 -11 -237 -17 -439 -60 -106
-22 -277 -85 -410 -151 -140 -70 -158 -80 -189 -106 -11 -10 -24 -18 -28 -18
-9 0 -15 -4 -61 -45 -15 -14 -31 -25 -35 -25 -4 0 -34 -25 -66 -55 -32 -30
-62 -55 -67 -55 -5 0 -9 -4 -9 -9 0 -4 -23 -32 -51 -62 -55 -58 -179 -230
-179 -248 0 -6 -4 -11 -10 -11 -5 0 -12 -11 -16 -25 -3 -13 -12 -29 -20 -36
-8 -6 -11 -15 -8 -20 3 -5 0 -9 -5 -9 -6 0 -10 -3 -9 -7 2 -5 -8 -33 -22 -63
-13 -30 -23 -58 -22 -62 1 -5 -2 -8 -6 -8 -5 0 -9 -6 -10 -12 -1 -15 -10 -52
-12 -55 -2 -2 -4 -7 -5 -13 -1 -5 -4 -11 -5 -12 -1 -2 -4 -12 -6 -23 -1 -11
-10 -44 -18 -74 -8 -30 -13 -58 -10 -63 3 -4 1 -8 -4 -8 -4 0 -9 -12 -10 -27
-9 -136 -10 -173 -1 -178 5 -4 7 -11 4 -16 -4 -5 -1 -9 5 -9 6 0 8 -4 5 -10
-3 -5 -1 -10 6 -10 7 0 10 -3 6 -6 -7 -7 46 -54 62 -54 6 0 11 -4 11 -8 0 -4
17 -9 38 -10 34 -3 70 -8 82 -12 3 -1 10 -1 15 0 6 2 145 5 310 6 165 2 309 5
319 6 27 3 98 76 118 120 10 20 29 71 43 113 22 68 50 117 112 205 36 50 134
126 217 168 28 15 53 27 56 28 3 0 13 4 22 8 9 4 22 9 30 10 7 2 21 6 30 10 9
4 25 9 35 11 10 2 18 4 18 5 0 3 39 10 67 13 16 1 28 4 28 7 0 9 319 21 333
13 5 -3 30 -7 55 -9 26 -1 62 -8 81 -13 19 -6 37 -9 39 -6 3 2 17 -2 31 -9 14
-7 44 -19 66 -26 22 -7 48 -19 57 -27 9 -8 22 -12 27 -8 6 3 11 2 11 -3 0 -4
19 -19 42 -32 59 -33 166 -144 210 -217 64 -107 108 -240 124 -376 8 -68 12
-737 4 -742 -3 -2 -24 13 -45 34 -47 43 -168 134 -205 153 -14 7 -48 27 -76
45 -29 18 -54 29 -58 26 -3 -4 -6 -1 -6 5 0 7 -3 11 -7 10 -5 -2 -28 7 -53 18
-60 29 -83 38 -92 36 -5 -1 -8 3 -8 9 0 5 -4 7 -10 4 -5 -3 -19 -1 -30 5 -12
6 -29 13 -38 15 -9 3 -33 9 -52 14 -79 23 -157 42 -185 46 -36 5 -86 13 -119
19 -57 10 -240 20 -365 19 -125 -1 -165 -4 -281 -20 -25 -4 -55 -7 -67 -7 -13
-1 -23 -4 -23 -8 0 -3 -7 -5 -17 -4 -9 2 -34 -3 -55 -11 -22 -7 -44 -11 -49
-8 -5 4 -9 1 -9 -5 0 -7 -7 -10 -15 -7 -8 4 -17 2 -20 -2 -2 -5 -22 -12 -42
-16 -21 -4 -42 -11 -48 -15 -5 -5 -12 -8 -15 -8 -3 -1 -18 -5 -33 -11 -16 -6
-31 -11 -34 -11 -11 0 -98 -45 -101 -53 -2 -4 -7 -5 -12 -2 -4 3 -24 -6 -44
-20 -20 -13 -36 -22 -36 -20 0 14 -288 -200 -290 -215 0 -3 -24 -31 -54 -63
-56 -59 -166 -215 -166 -235 0 -7 -4 -12 -10 -12 -5 0 -10 -8 -10 -18 0 -10
-9 -28 -20 -40 -12 -12 -19 -22 -16 -22 2 0 -9 -33 -25 -74 -29 -76 -76 -246
-83 -307 -25 -195 -26 -344 -1 -539 29 -234 165 -540 308 -693 15 -16 27 -33
27 -39 0 -5 3 -7 8 -5 4 3 13 -1 20 -9 7 -8 10 -14 7 -14 -12 0 116 -110 174
-149 20 -14 38 -28 41 -31 15 -20 273 -154 320 -166 8 -2 42 -13 75 -25 33
-11 67 -22 75 -23 8 -1 22 -5 30 -8 14 -6 75 -19 110 -24 8 -1 29 -5 45 -9 34
-8 78 -13 153 -20 29 -2 56 -7 61 -10 5 -3 13 -1 16 5 4 7 11 8 18 2 18 -15
315 -5 437 14 14 2 41 6 60 8 19 3 46 8 60 11 14 4 34 8 45 10 46 9 109 26
119 32 5 4 19 8 31 9 84 9 485 229 485 266 0 4 5 8 11 8 6 0 53 43 103 95 l93
95 0 -122 c0 -68 3 -138 6 -157 13 -78 67 -133 144 -149 60 -12 671 -7 718 6
50 14 100 61 117 110 10 29 12 343 12 1527 0 1318 -3 1591 -19 1670 -3 11 -7
36 -10 55 -8 57 -15 91 -31 158 -9 35 -17 68 -18 75 -1 7 -4 17 -7 22 -4 6
-17 42 -29 80 -13 39 -30 80 -37 92 -8 12 -14 23 -13 25 3 7 -44 104 -54 110
-6 4 -7 8 -3 8 5 0 -2 15 -15 33 -13 17 -23 34 -24 37 -1 12 -40 70 -46 70 -5
0 -8 6 -8 13 0 7 -12 26 -27 43 -16 16 -40 46 -54 65 -43 56 -158 167 -234
227 -220 170 -477 285 -780 348 -65 14 -157 25 -162 20 -4 -3 -12 -1 -18 4 -7
5 -61 12 -121 15 -60 2 -129 6 -152 7 -24 2 -45 2 -46 0z m-192 -2763 c13 11
34 10 54 -2 6 -5 12 -5 12 0 0 4 23 8 50 8 28 1 50 -4 50 -9 0 -6 5 -5 12 2 8
8 17 8 31 1 15 -8 18 -8 12 1 -5 9 -3 9 11 2 11 -5 30 -9 44 -8 14 1 29 0 35
-3 5 -3 27 -6 50 -8 38 -3 80 -10 80 -13 0 -2 16 -6 55 -13 14 -3 25 -6 25 -7
0 -1 8 -3 18 -5 36 -7 122 -40 129 -50 4 -5 8 -7 8 -2 0 6 35 -11 120 -59 65
-36 161 -127 209 -198 35 -52 79 -160 87 -213 10 -66 11 -183 2 -189 -4 -3 -6
-10 -2 -15 3 -5 -2 -35 -11 -66 -38 -131 -111 -234 -228 -326 -16 -12 -35 -28
-43 -35 -8 -7 -14 -10 -14 -6 0 4 -8 0 -17 -8 -17 -14 -67 -42 -123 -67 -64
-28 -190 -66 -258 -77 -19 -3 -42 -7 -51 -9 -95 -18 -323 -24 -436 -11 -128
15 -308 61 -341 87 -6 5 -14 6 -17 2 -4 -3 -7 -2 -7 4 0 6 -12 14 -27 18 -15
3 -30 10 -33 13 -3 4 -25 20 -49 36 -72 46 -184 172 -193 216 -2 8 -6 18 -11
21 -10 7 -44 105 -52 154 -9 49 -14 226 -6 240 2 5 6 24 8 43 5 51 50 161 88
219 33 50 84 105 139 151 32 27 196 115 196 106 0 -4 7 -1 15 6 8 7 15 9 15 5
0 -4 7 -2 15 5 8 6 19 9 25 5 5 -3 10 -2 10 3 0 5 21 13 48 17 26 5 54 10 62
12 22 5 90 14 132 17 21 1 41 6 45 10 4 4 9 2 11 -4 3 -7 8 -8 16 -1z"/>
<path d="M31847 19354 c-3 -3 -43 -8 -89 -10 -45 -3 -96 -6 -113 -8 -59 -8
-110 -16 -135 -21 -14 -3 -41 -8 -60 -11 -19 -3 -40 -10 -46 -15 -6 -5 -13 -7
-16 -4 -7 8 -172 -52 -263 -95 -101 -49 -157 -81 -172 -100 -7 -8 -13 -12 -13
-7 0 4 -9 -1 -19 -10 -11 -10 -34 -29 -53 -43 -66 -50 -180 -167 -235 -242
-32 -42 -59 -76 -60 -74 -1 1 -3 76 -3 166 -2 192 -10 237 -56 286 -52 58 -81
61 -479 60 -378 -2 -381 -2 -431 -58 -52 -57 -49 87 -52 -2268 -2 -1654 0
-2206 9 -2238 6 -23 26 -58 43 -77 51 -56 86 -60 472 -59 318 1 342 2 385 21
54 24 84 63 98 124 7 28 11 519 11 1374 0 732 2 1341 4 1355 3 14 7 52 11 85
26 251 149 518 302 659 25 23 56 51 69 64 13 13 24 20 24 17 0 -3 15 5 33 18
44 34 133 78 141 70 3 -4 6 -1 6 5 0 7 8 12 18 12 10 0 22 3 26 7 3 4 12 8 19
9 7 1 46 11 87 21 41 11 88 19 103 19 15 -1 27 1 27 4 0 11 325 1 338 -10 2
-3 4 -3 52 -14 50 -11 103 -29 115 -38 5 -4 17 -8 26 -8 9 0 22 -7 29 -15 7
-8 16 -13 20 -10 4 2 18 -6 31 -18 13 -12 25 -21 27 -19 6 6 77 -52 130 -108
100 -103 170 -249 208 -435 15 -72 17 -230 18 -1561 2 -1362 3 -1483 19 -1515
23 -49 62 -86 105 -100 43 -15 725 -18 757 -4 11 4 23 9 27 9 23 3 73 55 90
94 20 45 20 61 19 1566 0 837 -3 1535 -5 1551 -2 17 -7 62 -11 100 -4 39 -9
79 -12 90 -2 11 -6 34 -8 50 -6 43 -45 207 -55 230 -9 21 -30 87 -34 108 -4
19 -25 68 -46 110 -11 20 -18 37 -15 37 2 0 -9 23 -25 50 -17 28 -30 54 -30
59 0 4 -9 18 -20 31 -11 13 -20 29 -20 37 0 7 -4 13 -10 13 -5 0 -10 6 -10 14
0 8 -6 21 -13 28 -7 7 -26 31 -42 53 -67 89 -168 195 -250 260 -27 22 -55 45
-61 50 -6 6 -27 19 -47 30 -20 11 -37 23 -37 27 0 5 -4 8 -10 8 -5 0 -31 13
-57 28 -26 15 -82 42 -123 60 -66 27 -104 41 -245 82 -16 5 -50 12 -75 15 -25
4 -56 9 -70 11 -14 3 -75 6 -137 8 -61 2 -116 6 -121 10 -5 3 -12 3 -15 0z"/>
<path d="M26368 19294 c-2 -1 -21 -4 -43 -7 -22 -3 -62 -11 -90 -17 -27 -7
-57 -13 -65 -15 -93 -21 -330 -116 -338 -137 -2 -4 -12 -8 -22 -8 -10 0 -20
-3 -22 -7 -1 -5 -30 -26 -62 -48 -33 -22 -70 -50 -83 -62 -12 -13 -24 -23 -27
-23 -9 0 -120 -114 -156 -160 -19 -25 -42 -52 -52 -61 -10 -9 -18 -20 -18 -23
0 -4 -13 -27 -30 -51 -16 -24 -35 -54 -40 -67 -16 -34 -40 -74 -41 -68 -6 24
-4 82 3 86 5 3 5 11 1 17 -12 18 -10 171 2 179 7 5 7 8 -1 8 -11 0 -12 99 -1
117 4 5 4 13 0 17 -4 3 -7 32 -9 64 -3 99 -51 167 -134 189 -19 5 -192 9 -385
8 -381 -1 -390 -2 -447 -59 -27 -27 -55 -114 -45 -140 3 -8 3 -17 0 -20 -5 -4
-7 -115 -2 -133 1 -5 0 -12 -1 -18 -4 -24 -2 -144 3 -152 4 -6 4 -13 0 -16 -3
-4 -5 -39 -4 -79 2 -84 2 -74 0 -154 -1 -34 1 -66 4 -71 4 -6 4 -13 1 -16 -6
-5 -8 -115 -3 -134 1 -5 0 -12 -1 -18 -4 -24 -2 -144 3 -152 4 -6 4 -13 0 -16
-3 -4 -5 -39 -4 -79 2 -84 2 -74 0 -154 -1 -34 1 -66 4 -71 4 -6 4 -13 1 -16
-6 -5 -8 -115 -3 -134 1 -5 0 -12 -1 -18 -4 -24 -2 -144 3 -152 4 -6 4 -13 1
-15 -7 -8 -5 -2685 2 -2728 11 -66 39 -102 104 -135 32 -17 69 -18 396 -19
326 0 364 2 398 18 46 22 76 46 76 62 0 7 5 14 10 16 13 4 20 36 25 108 2 30
4 57 5 60 2 3 1 10 0 15 -8 32 -5 85 4 85 7 0 8 3 1 8 -6 4 -11 25 -11 47 0
22 5 43 11 47 7 5 7 8 0 8 -13 0 -13 108 -1 128 4 6 3 12 -2 12 -10 0 -10 60
1 76 3 6 3 14 -1 18 -11 12 -9 96 2 96 8 0 8 3 1 8 -12 8 -14 91 -2 109 4 6 4
14 -1 17 -10 6 -9 66 1 83 4 6 4 14 -1 17 -10 6 -9 66 1 83 4 6 4 14 -1 17 -9
6 -9 67 1 83 4 6 3 13 0 17 -11 11 -10 86 1 86 8 0 8 3 1 8 -12 8 -13 61 -3
78 4 6 4 14 0 18 -11 12 -9 136 3 136 7 0 7 3 0 8 -12 8 -13 61 -3 78 4 6 4
14 0 18 -11 12 -9 70 3 78 7 5 7 8 0 8 -12 0 -14 108 -2 127 4 6 4 14 -1 17
-10 6 -9 66 1 83 4 6 4 14 -1 17 -10 6 -9 66 1 83 4 6 4 14 -1 17 -7 4 -8 69
-2 86 1 3 1 10 0 15 -8 32 -5 85 4 85 7 0 8 3 1 8 -12 8 -13 61 -2 79 4 6 3
14 -1 17 -8 5 -8 33 1 113 2 18 -1 29 -7 26 -5 -3 -6 -1 -2 5 4 7 9 36 12 64
8 91 10 107 29 198 3 14 8 40 11 58 3 17 10 32 16 32 5 0 7 4 4 9 -4 5 -1 22
5 38 7 15 14 37 16 47 2 11 7 24 12 30 4 6 15 30 24 53 45 115 153 258 271
358 26 22 54 46 61 53 7 6 17 12 20 12 4 0 19 8 33 19 15 10 56 33 92 50 36
18 72 36 80 41 21 10 177 57 215 65 17 3 46 8 65 10 19 3 45 8 57 10 12 3 64
8 115 10 124 8 161 24 193 88 l25 50 0 402 0 402 -26 51 c-33 67 -85 94 -173
91 -34 -1 -62 -3 -63 -5z"/>
<path d="M17465 19220 c-80 -17 -133 -79 -140 -160 -2 -21 -6 -48 -10 -60 -5
-15 -4 -20 4 -16 6 4 9 2 6 -6 -9 -23 -12 -128 -3 -128 4 0 3 -12 -2 -26 -7
-16 -7 -23 0 -19 7 4 7 -2 0 -19 -5 -15 -6 -28 0 -31 5 -3 7 -11 4 -18 -9 -24
-10 -127 -1 -127 4 0 5 -5 2 -11 -10 -16 -13 -59 -4 -59 4 0 4 -14 -1 -30 -5
-19 -5 -28 1 -25 5 4 5 -4 -1 -19 -5 -15 -6 -28 0 -31 5 -3 7 -11 4 -18 -8
-22 -10 -127 -2 -127 4 0 3 -12 -2 -26 -7 -16 -7 -23 0 -19 7 4 7 -2 0 -19 -5
-15 -6 -28 0 -31 5 -3 7 -11 4 -18 -8 -22 -10 -127 -2 -127 4 0 3 -12 -2 -26
-7 -16 -7 -23 0 -19 7 4 7 -2 0 -19 -5 -15 -6 -28 0 -31 5 -3 7 -11 4 -18 -8
-22 -10 -127 -2 -127 4 0 3 -12 -2 -26 -7 -16 -7 -23 0 -19 7 4 7 -2 0 -19 -5
-15 -6 -28 0 -31 5 -3 7 -11 4 -18 -8 -22 -10 -127 -2 -127 4 0 3 -12 -2 -26
-7 -16 -7 -23 0 -19 7 4 7 -2 0 -19 -5 -15 -6 -28 0 -31 5 -3 7 -11 4 -18 -9
-25 -10 -127 -1 -127 5 0 5 -6 -2 -13 -8 -10 -7 -17 1 -25 7 -7 8 -12 3 -12
-11 0 -12 -51 -1 -68 4 -7 4 -12 -1 -12 -10 0 -9 -52 1 -68 4 -7 4 -12 -1 -12
-10 0 -9 -52 1 -68 4 -7 4 -12 -1 -12 -10 0 -9 -52 1 -68 4 -7 4 -12 -1 -12
-10 0 -9 -52 1 -68 4 -7 4 -12 -1 -12 -10 0 -9 -52 1 -68 4 -7 4 -12 -1 -12
-10 0 -9 -52 1 -68 4 -7 4 -12 -1 -12 -4 0 -8 -23 -8 -50 0 -28 3 -50 7 -50 4
0 3 -14 -2 -30 -5 -19 -5 -28 1 -25 5 4 5 -4 -1 -19 -5 -15 -6 -28 0 -31 5 -3
7 -11 4 -18 -8 -22 -10 -127 -2 -127 4 0 3 -12 -2 -26 -7 -16 -7 -23 0 -19 7
4 7 -2 0 -19 -5 -15 -6 -28 0 -31 5 -3 7 -11 4 -18 -8 -22 -10 -127 -2 -127 4
0 3 -12 -2 -26 -7 -16 -7 -23 0 -19 7 4 7 -2 0 -19 -5 -15 -6 -28 0 -31 5 -3
7 -11 4 -18 -8 -22 -10 -127 -2 -127 4 0 3 -12 -2 -26 -7 -16 -7 -23 0 -19 7
4 7 -2 0 -19 -5 -15 -6 -28 0 -31 5 -3 7 -11 4 -18 -8 -22 -10 -127 -2 -127 4
0 3 -12 -2 -26 -7 -16 -7 -23 0 -19 7 4 7 -2 0 -19 -5 -15 -6 -28 0 -31 5 -3
7 -11 4 -18 -9 -25 -10 -127 -1 -127 5 0 5 -6 -2 -13 -8 -10 -7 -17 1 -25 7
-7 8 -12 2 -12 -10 0 -11 -51 0 -68 4 -7 4 -12 -1 -12 -10 0 -9 -52 1 -68 4
-7 4 -12 -1 -12 -10 0 -9 -52 1 -68 4 -7 4 -12 -1 -12 -10 0 -9 -52 1 -68 4
-7 4 -12 -1 -12 -10 0 -9 -52 1 -68 4 -7 4 -12 -1 -12 -10 0 -9 -52 1 -68 4
-7 4 -12 -1 -12 -10 0 -9 -52 1 -68 4 -7 4 -12 -1 -12 -4 0 -8 -23 -8 -50 0
-28 3 -50 7 -50 4 0 3 -14 -2 -30 -5 -19 -5 -28 1 -25 5 4 5 -4 -1 -19 -5 -15
-6 -28 0 -31 5 -3 7 -11 4 -18 -8 -22 -10 -127 -2 -127 4 0 3 -12 -2 -26 -7
-16 -7 -23 0 -19 7 4 7 -2 0 -19 -6 -16 -6 -27 1 -31 5 -4 7 -10 4 -15 -3 -5
-7 -53 -10 -107 -2 -54 -7 -109 -10 -123 -2 -13 -7 -42 -10 -63 -4 -22 -11
-51 -16 -66 -6 -14 -10 -26 -9 -26 5 0 -15 -62 -26 -84 -8 -14 -14 -32 -14
-38 0 -7 -4 -13 -9 -13 -5 0 -11 -10 -15 -23 -3 -12 -18 -37 -33 -54 -15 -17
-37 -42 -48 -56 -78 -94 -266 -168 -468 -181 -140 -10 -203 -44 -233 -127 -23
-66 -23 -687 0 -741 19 -44 82 -108 107 -108 10 0 20 -3 22 -8 5 -8 222 -6
322 2 110 10 260 30 260 36 0 1 9 3 20 5 67 12 93 19 115 28 8 4 24 8 35 10
11 2 27 7 35 10 76 29 116 41 123 39 4 -1 7 2 7 6 0 5 18 14 40 21 22 6 40 16
40 22 0 6 5 7 10 4 6 -3 10 -1 10 5 0 6 4 9 9 5 5 -3 12 -1 16 4 3 6 26 20 50
32 25 13 53 31 62 41 9 10 20 18 25 18 21 0 186 157 241 229 23 31 45 58 48
61 29 24 166 290 176 342 3 15 10 28 16 28 6 0 8 3 4 6 -3 4 0 23 8 43 16 43
65 243 70 286 2 17 4 30 5 30 2 0 4 18 14 116 1 14 5 30 7 35 3 5 5 42 4 81 0
40 2 73 6 73 6 0 5 4938 -1 4960 -5 15 -6 16 -42 64 -43 58 -59 60 -443 61
-192 1 -363 -2 -380 -5z"/>
<path d="M27515 19222 c-67 -11 -145 -83 -145 -135 0 -10 -5 -27 -10 -37 -6
-12 -7 -21 0 -25 6 -4 6 -15 0 -30 -5 -14 -6 -25 -1 -25 5 0 7 -8 5 -17 -8
-33 -9 -153 -2 -153 4 0 3 -12 -2 -26 -6 -15 -6 -32 -1 -42 6 -11 6 -24 0 -34
-6 -11 -6 -19 1 -23 6 -4 7 -13 1 -24 -6 -10 -6 -23 -1 -31 5 -8 6 -18 4 -22
-8 -13 -8 -193 0 -206 3 -6 2 -13 -3 -16 -6 -4 -6 -18 -1 -36 5 -17 6 -30 2
-30 -8 0 -7 -89 2 -97 3 -3 1 -14 -4 -24 -7 -12 -7 -20 0 -24 6 -4 8 -11 4
-16 -9 -15 -11 -79 -2 -79 3 0 3 -13 -2 -30 -5 -16 -5 -30 0 -30 4 0 4 -15 0
-34 -4 -19 -4 -40 1 -47 4 -7 5 -17 2 -22 -7 -11 -10 -77 -3 -77 4 0 4 -70 0
-77 -4 -7 -3 -74 2 -78 3 -3 2 -23 -2 -44 -4 -22 -3 -46 2 -54 5 -9 4 -18 -1
-22 -7 -3 -7 -15 -1 -30 6 -15 6 -27 0 -30 -6 -3 -6 -15 0 -29 5 -13 6 -27 3
-30 -6 -5 -7 -65 -3 -83 1 -5 1 -24 0 -43 -5 -85 -5 -110 2 -110 4 0 3 -12 -2
-26 -6 -15 -6 -32 -1 -42 6 -11 6 -24 0 -34 -6 -11 -6 -19 1 -23 6 -4 7 -13 1
-24 -6 -10 -6 -23 -1 -31 5 -8 6 -18 4 -22 -8 -13 -8 -193 0 -206 3 -6 2 -13
-3 -16 -6 -4 -6 -18 -1 -36 5 -17 6 -30 2 -30 -4 0 -7 -34 -7 -75 0 -41 3 -75
7 -75 4 0 3 -12 -2 -26 -6 -15 -6 -32 -1 -42 6 -11 6 -24 0 -34 -6 -11 -6 -19
1 -23 6 -4 7 -13 1 -24 -6 -10 -6 -23 -1 -31 5 -8 6 -18 4 -22 -8 -13 -8 -193
0 -206 3 -6 2 -13 -3 -16 -6 -4 -6 -18 -1 -36 5 -17 6 -30 2 -30 -8 0 -7 -89
2 -97 3 -3 1 -14 -4 -24 -7 -12 -7 -20 0 -24 6 -4 8 -11 4 -16 -9 -15 -11 -79
-2 -79 3 0 3 -13 -2 -30 -5 -16 -5 -30 0 -30 4 0 6 -8 4 -17 -8 -33 -9 -153
-2 -153 4 0 3 -12 -2 -26 -6 -15 -6 -32 -1 -42 6 -11 6 -24 0 -34 -6 -11 -6
-19 1 -23 6 -4 7 -13 1 -24 -6 -10 -6 -23 -1 -31 5 -8 6 -18 4 -22 -8 -13 -8
-193 0 -206 3 -6 2 -13 -3 -16 -6 -4 -6 -18 -1 -36 5 -17 6 -30 2 -30 -8 0 -7
-89 2 -97 3 -3 1 -14 -4 -24 -7 -12 -7 -20 0 -24 6 -4 8 -11 4 -16 -9 -15 -11
-79 -2 -79 3 0 3 -13 -2 -30 -5 -16 -5 -30 -1 -30 5 0 5 -18 1 -40 -4 -22 -5
-42 -1 -45 3 -3 6 -16 7 -28 2 -40 24 -94 49 -117 54 -51 92 -55 465 -54 327
1 347 2 392 21 32 15 55 35 75 65 l28 43 1 2190 c1 1393 -2 2207 -8 2238 -5
26 -22 62 -36 79 -51 60 -61 62 -447 63 -192 0 -359 -1 -370 -3z"/>
</g>
</svg>
